
<svg xmlns="http://www.w3.org/2000/svg" x="0px" y="0px" width="32" height="32" viewBox="0 0 32 32">
<rect width="22" height="26" x="5" y="3" fill="#3498b3"></rect><rect width="3" height="1" x="5" y="8" fill="#fff"></rect><rect width="3" height="1" x="5" y="13" fill="#fff"></rect><rect width="3" height="1" x="5" y="18" fill="#fff"></rect><rect width="3" height="1" x="5" y="23" fill="#fff"></rect><path fill="#fff" d="M17,16c-1.654,0-3-1.346-3-3s1.346-3,3-3s3,1.346,3,3S18.654,16,17,16z M17,11c-1.103,0-2,0.897-2,2	s0.897,2,2,2s2-0.897,2-2S18.103,11,17,11z"></path><path fill="#fff" d="M22,22h-1c0-2.206-1.794-4-4-4s-4,1.794-4,4h-1c0-2.757,2.243-5,5-5S22,19.243,22,22z"></path><path fill="#302529" d="M28,30H4V2h24V30z M6,28h20V4H6V28z"></path>
</svg>